<svg xmlns="http://www.w3.org/2000/svg" fill="none" viewBox="0 0 42 42">
  <path fill="#fff" d="M31.482 2.793a48.968 48.968 0 0 0-5.314-.273c-5.886 0-9.543 3.749-9.543 9.783v4.096H11.68a.875.875 0 0 0-.875.875v6.738a.875.875 0 0 0 .875.875h4.944v13.51a.875.875 0 0 0 .875.875h6.961a.875.875 0 0 0 .875-.875v-13.51h4.928a.875.875 0 0 0 .868-.762l.87-6.737a.877.877 0 0 0-.868-.989h-5.798v-3.428c0-1.697.342-2.406 2.464-2.406h3.569a.875.875 0 0 0 .875-.875V3.66a.875.875 0 0 0-.762-.868Zm-.988 6.02-2.695.002c-3.775 0-4.213 2.373-4.213 4.156v4.305a.875.875 0 0 0 .874.875h5.68l-.646 4.988h-5.033a.875.875 0 0 0-.875.875V37.52h-5.211V24.013a.875.875 0 0 0-.875-.875h-4.942v-4.987H17.5a.875.875 0 0 0 .875-.875v-4.973c0-5.03 2.914-8.033 7.793-8.033 1.765 0 3.36.096 4.326.18v4.363Z"/>
</svg>
