<svg xmlns="http://www.w3.org/2000/svg" fill="none" viewBox="0 0 42 42">
  <path fill="#fff" d="M21 13.453a7.547 7.547 0 1 0 0 15.093 7.547 7.547 0 0 0 0-15.093Zm0 13.125A5.578 5.578 0 1 1 26.578 21 5.594 5.594 0 0 1 21 26.578Zm7.219-21.656H13.78a8.86 8.86 0 0 0-8.86 8.86v14.437a8.86 8.86 0 0 0 8.86 8.86h14.44a8.86 8.86 0 0 0 8.86-8.86V13.78a8.86 8.86 0 0 0-8.86-8.86Zm6.89 23.297a6.89 6.89 0 0 1-6.89 6.89H13.78a6.89 6.89 0 0 1-6.89-6.89V13.78a6.89 6.89 0 0 1 6.89-6.89h14.44a6.89 6.89 0 0 1 6.89 6.89v14.44Zm-3.937-15.75a1.64 1.64 0 1 1-3.28 0 1.64 1.64 0 0 1 3.28 0Z"/>
</svg>
