<svg xmlns="http://www.w3.org/2000/svg" fill="none" viewBox="0 0 42 42">
  <path fill="#fff" d="m36.297 30.131-.228-.283c-1.8-2.277-3.306-3.461-4.597-3.617-1.117-.153-2.197.62-3.345 1.414l-1.226.766a2.647 2.647 0 0 1-.429.173c-.718.204-2.529.323-3.554-.616-1.194-1.091-3.045-3.09-4.485-4.837-1.376-1.807-2.888-4.061-3.677-5.48-.667-1.203-.109-2.884.264-3.508a2.43 2.43 0 0 1 .277-.362l1.081-.999c.016-.016.023-.035.037-.049.01-.01.028-.007.04-.016.977-.824 1.986-1.673 2.125-2.763.162-1.281-.634-3.013-2.438-5.288l-.22-.284c-1.117-1.431-2.806-3.596-5.232-3.24-.953.143-1.805.468-2.684 1.02-.009.005-.014.015-.021.02-.007.006-.016.006-.023.01L6.74 3.1c-.012.007-.02.023-.031.034-.01.008-.023.01-.034.019a16.29 16.29 0 0 0-.423.367C5.01 4.625 2.324 7.837 4.156 13.776c1.183 3.836 3.623 8.313 7.072 12.971l-.034.028 1.903 2.37.016-.013c3.74 4.424 7.546 7.844 11.033 9.914 2.328 1.383 4.361 1.84 6.034 1.84 2.202 0 3.779-.792 4.57-1.306l.496-.333c.056-.038.097-.093.137-.142l1.083-.815c.012-.01.02-.024.032-.035.005-.005.014-.004.02-.009.77-.703 1.304-1.44 1.675-2.313.961-2.239-.759-4.382-1.896-5.802Zm.61 5.252c-.288.68-.71 1.257-1.32 1.817l-1.611 1.212c-1.46.949-4.58 2.121-9.112-.57-3.488-2.07-7.328-5.57-11.106-10.122l-1.022-1.291c-3.557-4.718-6.06-9.237-7.241-13.066-1.535-4.979.399-7.65 1.694-8.802.131-.12.262-.23.392-.34l.005-.005 1.174-.87c.714-.451 1.376-.703 2.137-.819 1.626-.245 2.949 1.47 3.92 2.716l.227.289c2.017 2.543 2.21 3.752 2.148 4.245-.07.548-.903 1.25-1.638 1.868l-.104.087-.008.012c-.005.004-.01.005-.016.009l-1.118 1.034c-.007.007-.01.016-.018.025-.007.008-.02.012-.028.02a3.93 3.93 0 0 0-.443.59c-.628 1.052-1.221 3.226-.285 4.907.817 1.47 2.373 3.793 3.803 5.669 1.494 1.813 3.4 3.87 4.636 5 .925.845 2.213 1.128 3.328 1.128a5.9 5.9 0 0 0 1.56-.2c.218-.062.444-.153.677-.267.014-.007.02-.02.035-.028.007-.003.017-.002.024-.007l1.299-.812c.042-.028.07-.065.105-.1l.015.018c.8-.555 1.712-1.206 2.283-1.111.505.06 1.653.547 3.673 3.097l.233.292c.983 1.227 2.33 2.907 1.702 4.375Z"/>
</svg>
